<svg width="115" height="32" viewBox="0 0 115 32" fill="none" xmlns="http://www.w3.org/2000/svg">
<path d="M2 2V29.6535H20.2255V2H2ZM17.3428 4.87025V17.2857H4.87956V4.87025H17.3428ZM4.88276 26.7833V20.1528H17.346V26.7833H4.88276Z" fill="#DB272D"/>
<path d="M28.9175 2.05273V18.3079C28.9175 24.4585 31.6597 27.0681 35.3406 27.0681C39.4333 27.0681 42.0511 24.379 42.0511 18.3079V2.05273H45.6521V18.0632C45.6521 26.4959 41.1923 29.9606 35.2193 29.9606C29.5719 29.9606 25.3164 26.7407 25.3164 18.2285V2.05273H28.9175Z" fill="white"/>
<path d="M51.2988 29.5124V2.05273H55.1872L64.027 15.9462C66.0734 19.1661 67.6696 22.0586 68.9785 24.8685L69.0615 24.8272C68.7326 21.1591 68.6528 17.8184 68.6528 13.5401V2.05273H72.0081V29.5124H68.407L59.6502 15.5775C57.7284 12.5229 55.8863 9.38569 54.4944 6.41055L54.3731 6.45187C54.5774 9.91333 54.6604 13.2159 54.6604 17.7771V29.5092H51.3052L51.2988 29.5124Z" fill="white"/>
<path d="M81.251 2.05273V29.5124H77.6914V2.05273H81.251Z" fill="white"/>
<path d="M102.497 5.10979H92.1819L91.1411 12.0263C91.7668 11.9437 92.3479 11.8611 93.3471 11.8611C95.4285 11.8611 97.5068 12.3156 99.1701 13.3105C101.293 14.512 103.039 16.8323 103.039 20.2271C103.039 25.4876 98.838 29.4226 92.9736 29.4226C90.0206 29.4226 87.5241 28.593 86.2344 27.7666L87.1506 24.9917C88.2743 25.6529 90.4771 26.4825 92.9321 26.4825C96.3831 26.4825 99.3393 24.2448 99.3393 20.6434C99.2978 17.1629 96.9673 14.6805 91.5593 14.6805C90.0206 14.6805 88.8139 14.8457 87.8146 14.9697L89.5609 2.04883H102.497V5.11297V5.10979Z" fill="white"/>
<path d="M107.239 2.41291H106.205V2.04102H108.702V2.41291H107.667V5.04476H107.239V2.41291Z" fill="white"/>
<path d="M112.073 5.04403V2.854L110.978 4.6785H110.78L109.688 2.86672V5.04403H109.273V2.03711H109.628L110.886 4.15086L112.127 2.03711H112.482V5.04403H112.073Z" fill="white"/>
</svg>
